<svg width="25" height="24" viewBox="0 0 25 24" fill="none" xmlns="http://www.w3.org/2000/svg">
<path d="M15.95 16.52L12.94 13.51C12.83 13.4 12.7 13.38 12.63 13.38C12.56 13.38 12.43 13.4 12.32 13.51L9.3 16.53C8.96 16.87 8.43 17.42 6.66 17.42L10.37 21.12C10.9325 21.6818 11.695 21.9974 12.49 21.9974C13.285 21.9974 14.0475 21.6818 14.61 21.12L18.33 17.41C17.42 17.41 16.66 17.23 15.95 16.52ZM9.3 7.47L12.32 10.49C12.4 10.57 12.52 10.62 12.63 10.62C12.74 10.62 12.86 10.57 12.94 10.49L15.93 7.5C16.64 6.76 17.45 6.59 18.36 6.59L14.64 2.88C14.0775 2.3182 13.315 2.00264 12.52 2.00264C11.725 2.00264 10.9625 2.3182 10.4 2.88L6.69 6.58C8.45 6.58 8.99 7.16 9.3 7.47Z" fill="white"/>
<path d="M21.61 9.85001L19.36 7.59001H18.1C17.56 7.59001 17.02 7.81001 16.65 8.20001L13.65 11.2C13.37 11.48 13 11.62 12.63 11.62C12.249 11.6146 11.8843 11.4645 11.61 11.2L8.58998 8.17001C8.20998 7.79001 7.68998 7.57001 7.13998 7.57001H5.66998L3.37998 9.87001C2.81818 10.4325 2.50262 11.195 2.50262 11.99C2.50262 12.785 2.81818 13.5475 3.37998 14.11L5.66998 16.41H7.14998C7.68998 16.41 8.20999 16.19 8.59999 15.81L11.62 12.79C11.9 12.51 12.27 12.37 12.64 12.37C13.01 12.37 13.38 12.51 13.66 12.79L16.67 15.8C17.05 16.18 17.57 16.4 18.12 16.4H19.38L21.63 14.14C22.1946 13.5676 22.5095 12.7949 22.5058 11.9909C22.5021 11.1869 22.1799 10.4171 21.61 9.85001Z" fill="white"/>
</svg>
